<?xml version="1.0" encoding="UTF-8"?>
<svg width="38px" height="60px" viewBox="0 0 38 60" version="1.1" xmlns="http://www.w3.org/2000/svg" xmlns:xlink="http://www.w3.org/1999/xlink">
    <!-- Generator: Sketch 42 (36781) - http://www.bohemiancoding.com/sketch -->
    <title>noun_692692_cc</title>
    <desc>Created with Sketch.</desc>
    <defs></defs>
    <g id="Page-1" stroke="none" stroke-width="1" fill="none" fill-rule="evenodd">
        <g id="48" transform="translate(-13.000000, -7.000000)" fill-rule="nonzero" fill="#FFFFFF">
            <g id="noun_692692_cc" transform="translate(13.000000, 7.000000)">
                <g id="Group">
                    <polygon id="Shape" points="28.54636 50.6235 12.63652 60 22.18136 60 28.54636 56.2485"></polygon>
                    <path d="M5.83528,24.1305 C5.1376,22.4745 4.75,20.655 4.75,18.75075 C4.75,10.98375 11.12944,4.68675 18.99848,4.68675 C26.86828,4.68675 33.24848,10.98375 33.25,18.7485 C33.25,20.655 32.86088,22.4745 32.1632,24.1305 L24.75852,41.7705 L9.45364,50.79075 L9.45364,56.25 L28.54484,44.9985 C28.54484,44.9985 36.54992,25.92375 36.55144,25.92375 C37.48016,23.715 38,21.291 38,18.74925 C37.99848,8.3955 29.49332,0 18.99848,0 C8.50592,0 1.87208714e-14,8.3955 1.87208714e-14,18.75075 C-0.00076,21.291 0.51756,23.71425 1.44704,25.923 C1.4478,25.923 9.45364,44.99775 9.45364,44.99775 L13.57436,42.56925 C11.267,37.0725 5.83528,24.1305 5.83528,24.1305 Z" id="Shape"></path>
                </g>
            </g>
        </g>
    </g>
</svg>